<svg width="20" height="20" viewBox="0 0 20 20" fill="none" xmlns="http://www.w3.org/2000/svg">
<path d="M6.4524 2.08203C6.4524 1.91627 6.38655 1.7573 6.26934 1.64009C6.15213 1.52288 5.99316 1.45703 5.8274 1.45703C5.66164 1.45703 5.50266 1.52288 5.38545 1.64009C5.26824 1.7573 5.2024 1.91627 5.2024 2.08203V3.3987C4.0024 3.49453 3.21573 3.72953 2.6374 4.3087C2.05823 4.88703 1.82323 5.67453 1.72656 6.8737H18.2616C18.1649 5.6737 17.9299 4.88703 17.3507 4.3087C16.7724 3.72953 15.9849 3.49453 14.7857 3.39786V2.08203C14.7857 1.91627 14.7199 1.7573 14.6027 1.64009C14.4855 1.52288 14.3265 1.45703 14.1607 1.45703C13.995 1.45703 13.836 1.52288 13.7188 1.64009C13.6016 1.7573 13.5357 1.91627 13.5357 2.08203V3.34286C12.9816 3.33203 12.3599 3.33203 11.6607 3.33203H8.3274C7.62823 3.33203 7.00656 3.33203 6.4524 3.34286V2.08203Z" fill="#666B6F"/>
<path fill-rule="evenodd" clip-rule="evenodd" d="M1.66406 10C1.66406 9.30083 1.66406 8.67917 1.6749 8.125H18.3199C18.3307 8.67917 18.3307 9.30083 18.3307 10V11.6667C18.3307 14.8092 18.3307 16.3808 17.3541 17.3567C16.3782 18.3333 14.8066 18.3333 11.6641 18.3333H8.33073C5.18823 18.3333 3.61656 18.3333 2.64073 17.3567C1.66406 16.3808 1.66406 14.8092 1.66406 11.6667V10ZM14.1641 11.6667C14.3851 11.6667 14.597 11.5789 14.7533 11.4226C14.9096 11.2663 14.9974 11.0543 14.9974 10.8333C14.9974 10.6123 14.9096 10.4004 14.7533 10.2441C14.597 10.0878 14.3851 10 14.1641 10C13.943 10 13.7311 10.0878 13.5748 10.2441C13.4185 10.4004 13.3307 10.6123 13.3307 10.8333C13.3307 11.0543 13.4185 11.2663 13.5748 11.4226C13.7311 11.5789 13.943 11.6667 14.1641 11.6667ZM14.1641 15C14.3851 15 14.597 14.9122 14.7533 14.7559C14.9096 14.5996 14.9974 14.3877 14.9974 14.1667C14.9974 13.9457 14.9096 13.7337 14.7533 13.5774C14.597 13.4211 14.3851 13.3333 14.1641 13.3333C13.943 13.3333 13.7311 13.4211 13.5748 13.5774C13.4185 13.7337 13.3307 13.9457 13.3307 14.1667C13.3307 14.3877 13.4185 14.5996 13.5748 14.7559C13.7311 14.9122 13.943 15 14.1641 15ZM10.8307 10.8333C10.8307 11.0543 10.7429 11.2663 10.5867 11.4226C10.4304 11.5789 10.2184 11.6667 9.9974 11.6667C9.77638 11.6667 9.56442 11.5789 9.40814 11.4226C9.25186 11.2663 9.16406 11.0543 9.16406 10.8333C9.16406 10.6123 9.25186 10.4004 9.40814 10.2441C9.56442 10.0878 9.77638 10 9.9974 10C10.2184 10 10.4304 10.0878 10.5867 10.2441C10.7429 10.4004 10.8307 10.6123 10.8307 10.8333ZM10.8307 14.1667C10.8307 14.3877 10.7429 14.5996 10.5867 14.7559C10.4304 14.9122 10.2184 15 9.9974 15C9.77638 15 9.56442 14.9122 9.40814 14.7559C9.25186 14.5996 9.16406 14.3877 9.16406 14.1667C9.16406 13.9457 9.25186 13.7337 9.40814 13.5774C9.56442 13.4211 9.77638 13.3333 9.9974 13.3333C10.2184 13.3333 10.4304 13.4211 10.5867 13.5774C10.7429 13.7337 10.8307 13.9457 10.8307 14.1667ZM5.83073 11.6667C6.05174 11.6667 6.2637 11.5789 6.41998 11.4226C6.57626 11.2663 6.66406 11.0543 6.66406 10.8333C6.66406 10.6123 6.57626 10.4004 6.41998 10.2441C6.2637 10.0878 6.05174 10 5.83073 10C5.60972 10 5.39775 10.0878 5.24147 10.2441C5.08519 10.4004 4.9974 10.6123 4.9974 10.8333C4.9974 11.0543 5.08519 11.2663 5.24147 11.4226C5.39775 11.5789 5.60972 11.6667 5.83073 11.6667ZM5.83073 15C6.05174 15 6.2637 14.9122 6.41998 14.7559C6.57626 14.5996 6.66406 14.3877 6.66406 14.1667C6.66406 13.9457 6.57626 13.7337 6.41998 13.5774C6.2637 13.4211 6.05174 13.3333 5.83073 13.3333C5.60972 13.3333 5.39775 13.4211 5.24147 13.5774C5.08519 13.7337 4.9974 13.9457 4.9974 14.1667C4.9974 14.3877 5.08519 14.5996 5.24147 14.7559C5.39775 14.9122 5.60972 15 5.83073 15Z" fill="#666B6F"/>
</svg>
