<svg width="24" height="24" viewBox="0 0 24 24" fill="none" xmlns="http://www.w3.org/2000/svg">
<path d="M7.9387 2.4548C7.65749 2.7361 7.49952 3.11756 7.49952 3.5153C7.49952 3.91305 7.65749 4.29451 7.9387 4.5758L15.3637 12.0008L7.9387 19.4258C7.66546 19.7087 7.51427 20.0876 7.51769 20.4809C7.5211 20.8742 7.67886 21.2504 7.95697 21.5285C8.23508 21.8066 8.6113 21.9644 9.00459 21.9678C9.39789 21.9712 9.77679 21.82 10.0597 21.5468L18.5452 13.0613C18.8264 12.78 18.9844 12.3986 18.9844 12.0008C18.9844 11.6031 18.8264 11.2216 18.5452 10.9403L10.0597 2.4548C9.77841 2.1736 9.39694 2.01562 8.9992 2.01562C8.60145 2.01562 8.21999 2.1736 7.9387 2.4548Z" fill="white"/>
</svg>
