<svg width="49" height="48" viewBox="0 0 49 48" fill="none" xmlns="http://www.w3.org/2000/svg">
<g id="ph:camera-fill">
<path id="Vector" d="M39.5 10.5H34.3025L31.7469 6.6675C31.61 6.46228 31.4245 6.29401 31.207 6.17757C30.9896 6.06114 30.7467 6.00015 30.5 6H18.5C18.2533 6.00015 18.0104 6.06114 17.793 6.17757C17.5755 6.29401 17.39 6.46228 17.2531 6.6675L14.6956 10.5H9.5C8.30653 10.5 7.16193 10.9741 6.31802 11.818C5.47411 12.6619 5 13.8065 5 15V36C5 37.1935 5.47411 38.3381 6.31802 39.182C7.16193 40.0259 8.30653 40.5 9.5 40.5H39.5C40.6935 40.5 41.8381 40.0259 42.682 39.182C43.5259 38.3381 44 37.1935 44 36V15C44 13.8065 43.5259 12.6619 42.682 11.818C41.8381 10.9741 40.6935 10.5 39.5 10.5ZM31.25 24.75C31.25 26.085 30.8541 27.3901 30.1124 28.5001C29.3707 29.6101 28.3165 30.4753 27.0831 30.9862C25.8497 31.4971 24.4925 31.6308 23.1831 31.3703C21.8738 31.1099 20.671 30.467 19.727 29.523C18.783 28.579 18.1401 27.3762 17.8797 26.0669C17.6192 24.7575 17.7529 23.4003 18.2638 22.1669C18.7747 20.9335 19.6399 19.8793 20.7499 19.1376C21.8599 18.3959 23.165 18 24.5 18C26.2902 18 28.0071 18.7112 29.273 19.977C30.5388 21.2429 31.25 22.9598 31.25 24.75Z" fill="#AEB3B8"/>
</g>
</svg>
