<svg width="20" height="21" viewBox="0 0 20 21" fill="none" xmlns="http://www.w3.org/2000/svg">
<g id="ic:round-edit">
<path id="Vector" d="M2 15.8538V18.5556C2 18.8045 2.19553 19 2.44438 19H5.14624C5.26178 19 5.37732 18.9556 5.45731 18.8667L15.1627 9.17022L11.8298 5.83734L2.13332 15.5338C2.04444 15.6227 2 15.7293 2 15.8538ZM17.7401 6.5928C17.8225 6.51057 17.8878 6.41291 17.9324 6.30539C17.977 6.19787 18 6.08261 18 5.96621C18 5.84981 17.977 5.73456 17.9324 5.62704C17.8878 5.51952 17.8225 5.42186 17.7401 5.33963L15.6604 3.25991C15.5781 3.17752 15.4805 3.11216 15.373 3.06756C15.2654 3.02296 15.1502 3 15.0338 3C14.9174 3 14.8021 3.02296 14.6946 3.06756C14.5871 3.11216 14.4894 3.17752 14.4072 3.25991L12.7808 4.88636L16.1136 8.21924L17.7401 6.5928Z" fill="#D2D7DC"/>
</g>
</svg>
