<svg width="24" height="24" viewBox="0 0 24 24" fill="none" xmlns="http://www.w3.org/2000/svg">
<g id="clarity:trash-solid" clip-path="url(#clip0_665_5049)">
<path id="Vector" d="M3.99959 6V20.6667C3.99339 20.9232 4.0378 21.1784 4.13027 21.4178C4.22275 21.6572 4.36148 21.876 4.53855 22.0617C4.71561 22.2474 4.92754 22.3965 5.16221 22.5003C5.39689 22.6041 5.64972 22.6606 5.90626 22.6667H18.0596C18.319 22.665 18.5754 22.6116 18.8139 22.5098C19.0525 22.4079 19.2683 22.2596 19.4489 22.0734C19.6295 21.8872 19.7712 21.6669 19.8657 21.4254C19.9603 21.1839 20.0058 20.926 19.9996 20.6667V6H3.99959ZM9.99959 19.3333H8.66626V9.33333H9.99959V19.3333ZM15.3329 19.3333H13.9996V9.33333H15.3329V19.3333Z" fill="#AEB3B8"/>
<path id="Vector_2" d="M20.487 3.33203H15.3337V2.66536C15.3337 2.31174 15.1932 1.9726 14.9431 1.72256C14.6931 1.47251 14.3539 1.33203 14.0003 1.33203H9.86699C9.53696 1.3652 9.23114 1.52018 9.00925 1.76673C8.78736 2.01328 8.66533 2.33368 8.66699 2.66536V3.33203H3.33366C3.15685 3.33203 2.98728 3.40227 2.86225 3.52729C2.73723 3.65232 2.66699 3.82189 2.66699 3.9987C2.66699 4.17551 2.73723 4.34508 2.86225 4.4701C2.98728 4.59513 3.15685 4.66536 3.33366 4.66536H20.487C20.6638 4.66536 20.8334 4.59513 20.9584 4.4701C21.0834 4.34508 21.1537 4.17551 21.1537 3.9987C21.1537 3.82189 21.0834 3.65232 20.9584 3.52729C20.8334 3.40227 20.6638 3.33203 20.487 3.33203Z" fill="#AEB3B8"/>
</g>
<defs>
<clipPath id="clip0_665_5049">
<rect width="24" height="24" fill="white"/>
</clipPath>
</defs>
</svg>
