<svg width="20" height="21" viewBox="0 0 20 21" fill="none" xmlns="http://www.w3.org/2000/svg">
<g id="clarity:trash-solid" clip-path="url(#clip0_809_1617)">
<path id="Vector" d="M3.33641 5.5V17.7222C3.33124 17.936 3.36825 18.1487 3.44531 18.3482C3.52238 18.5476 3.63799 18.73 3.78554 18.8848C3.93309 19.0395 4.1097 19.1637 4.30526 19.2502C4.50083 19.3367 4.71152 19.3838 4.9253 19.3889H15.0531C15.2692 19.3875 15.4829 19.343 15.6817 19.2581C15.8805 19.1733 16.0603 19.0496 16.2108 18.8945C16.3613 18.7394 16.4794 18.5558 16.5582 18.3545C16.637 18.1532 16.6749 17.9383 16.6697 17.7222V5.5H3.33641ZM8.33641 16.6111H7.2253V8.27778H8.33641V16.6111ZM12.7809 16.6111H11.6697V8.27778H12.7809V16.6111Z" fill="#D2D7DC"/>
<path id="Vector_2" d="M17.0687 3.27604H12.7743V2.72049C12.7743 2.4258 12.6572 2.14319 12.4489 1.93481C12.2405 1.72644 11.9579 1.60938 11.6632 1.60938H8.21875C7.94372 1.63701 7.68887 1.76617 7.50396 1.97162C7.31906 2.17708 7.21736 2.44408 7.21875 2.72049V3.27604H2.77431C2.62696 3.27604 2.48566 3.33457 2.38147 3.43876C2.27728 3.54295 2.21875 3.68425 2.21875 3.8316C2.21875 3.97894 2.27728 4.12025 2.38147 4.22443C2.48566 4.32862 2.62696 4.38715 2.77431 4.38715H17.0687C17.2161 4.38715 17.3574 4.32862 17.4616 4.22443C17.5658 4.12025 17.6243 3.97894 17.6243 3.8316C17.6243 3.68425 17.5658 3.54295 17.4616 3.43876C17.3574 3.33457 17.2161 3.27604 17.0687 3.27604Z" fill="#D2D7DC"/>
</g>
<defs>
<clipPath id="clip0_809_1617">
<rect width="20" height="20" fill="white" transform="translate(0 0.5)"/>
</clipPath>
</defs>
</svg>
