<svg width="22" height="22" viewBox="0 0 22 22" fill="none" xmlns="http://www.w3.org/2000/svg">
<path fill-rule="evenodd" clip-rule="evenodd" d="M20.6768 11.2298C20.6768 10.515 20.6127 9.82775 20.4935 9.16797H11V13.0671H16.4249C16.1912 14.3271 15.481 15.3947 14.4135 16.1094V18.6386H17.6711C19.5772 16.8838 20.6768 14.2996 20.6768 11.2298Z" fill="#4285F4"/>
<path fill-rule="evenodd" clip-rule="evenodd" d="M11 21.0828C13.7216 21.0828 16.0034 20.1802 17.6712 18.6407L14.4135 16.1115C13.5109 16.7163 12.3563 17.0737 11 17.0737C8.37466 17.0737 6.15248 15.3005 5.35982 12.918H1.99219V15.5296C3.65081 18.8239 7.05968 21.0828 11 21.0828Z" fill="#34A853"/>
<path fill-rule="evenodd" clip-rule="evenodd" d="M5.36166 12.9186C5.16006 12.3138 5.04551 11.6678 5.04551 11.0034C5.04551 10.339 5.16006 9.693 5.36166 9.0882V6.47656H1.99402C1.31133 7.83736 0.921875 9.37685 0.921875 11.0034C0.921875 12.6299 1.31133 14.1694 1.99402 15.5302L5.36166 12.9186Z" fill="#FBBC05"/>
<path fill-rule="evenodd" clip-rule="evenodd" d="M11 4.93097C12.48 4.93097 13.8087 5.43955 14.8534 6.43838L17.7445 3.54726C15.9988 1.92071 13.7171 0.921875 11 0.921875C7.05968 0.921875 3.65081 3.18071 1.99219 6.47504L5.35982 9.08667C6.15248 6.70413 8.37466 4.93097 11 4.93097Z" fill="#EA4335"/>
</svg>
