<svg width="32" height="32" viewBox="0 0 32 32" fill="none" xmlns="http://www.w3.org/2000/svg">
<g filter="url(#filter0_b_546_308)">
<circle cx="16" cy="16" r="16" fill="#727272" fill-opacity="0.72"/>
<circle cx="16" cy="16" r="15.5" stroke="#E3E7ED"/>
</g>
<path d="M16.9025 15.9962L23.6561 9.23595C23.7752 9.11621 23.8421 8.95414 23.8419 8.78523C23.8418 8.61631 23.7748 8.45433 23.6555 8.33475C23.4167 8.09715 22.9961 8.09595 22.7549 8.33595L16.0031 15.0961L9.24888 8.33415C9.00888 8.09715 8.58828 8.09835 8.34948 8.33535C8.2902 8.39439 8.24328 8.46464 8.21145 8.542C8.17962 8.61937 8.16351 8.70229 8.16408 8.78595C8.16408 8.95635 8.23008 9.11595 8.34948 9.23415L15.1031 15.9956L8.35008 22.7576C8.23091 22.8775 8.16417 23.0398 8.16451 23.2088C8.16485 23.3779 8.23223 23.5399 8.35188 23.6594C8.46768 23.7739 8.63148 23.84 8.80068 23.84H8.80428C8.97408 23.8394 9.13788 23.7728 9.25128 23.657L16.0031 16.8968L22.7573 23.6588C22.8767 23.7776 23.0363 23.8436 23.2055 23.8436C23.2891 23.8438 23.372 23.8275 23.4494 23.7956C23.5267 23.7637 23.597 23.7168 23.6562 23.6576C23.7153 23.5985 23.7622 23.5282 23.7941 23.4508C23.826 23.3735 23.8423 23.2906 23.8421 23.207C23.8421 23.0372 23.7761 22.877 23.6561 22.7587L16.9025 15.9962Z" fill="white"/>
<defs>
<filter id="filter0_b_546_308" x="-5" y="-5" width="42" height="42" filterUnits="userSpaceOnUse" color-interpolation-filters="sRGB">
<feFlood flood-opacity="0" result="BackgroundImageFix"/>
<feGaussianBlur in="BackgroundImageFix" stdDeviation="2.5"/>
<feComposite in2="SourceAlpha" operator="in" result="effect1_backgroundBlur_546_308"/>
<feBlend mode="normal" in="SourceGraphic" in2="effect1_backgroundBlur_546_308" result="shape"/>
</filter>
</defs>
</svg>
