<svg width="372" height="392" viewBox="0 0 372 392" fill="none" xmlns="http://www.w3.org/2000/svg">
<path fill-rule="evenodd" clip-rule="evenodd" d="M100.392 0C89.3022 0 80.3125 8.98974 80.3125 20.0791V120.475C80.3125 131.564 89.3022 140.554 100.392 140.554H180.708C191.797 140.554 200.787 131.564 200.787 120.475V20.0791C200.787 8.98973 191.797 0 180.708 0H100.392ZM110.428 20.0781C104.884 20.0781 100.389 24.573 100.389 30.1177V130.513C100.389 136.058 104.884 140.553 110.428 140.553H170.666C176.21 140.553 180.705 136.058 180.705 130.513V30.1177C180.705 24.573 176.21 20.0781 170.666 20.0781H110.428Z" fill="#3EA2FF"/>
<rect y="60.2383" width="281.108" height="321.266" rx="40.1582" fill="#3EA2FF"/>
<path d="M300.038 378.811C311.962 367.553 328.436 349.038 341.969 328.045C355.417 307.186 366.442 283.148 366.442 261.027C366.442 236.909 358.433 216.961 342.505 199.877C326.221 182.412 303.344 175.691 281.106 175.691C258.867 175.691 235.99 182.412 219.706 199.877C203.778 216.961 195.769 236.909 195.769 261.027C195.769 283.147 206.791 307.186 220.236 328.045C233.768 349.038 250.243 367.553 262.174 378.811C267.331 383.742 274.064 386.522 281.106 386.522C288.147 386.522 294.881 383.741 300.038 378.811Z" fill="#FFA63E" stroke="white" stroke-width="10.0396"/>
<circle cx="281.111" cy="261.025" r="30.1187" fill="white"/>
</svg>
