<svg width="49" height="49" viewBox="0 0 49 49" fill="none" xmlns="http://www.w3.org/2000/svg">
<rect x="0.5" y="0.5" width="48" height="48" rx="24" fill="white"/>
<path d="M16 30.875C16 29.7478 16.4478 28.6668 17.2448 27.8698C18.0418 27.0728 19.1228 26.625 20.25 26.625H28.75C29.8772 26.625 30.9582 27.0728 31.7552 27.8698C32.5522 28.6668 33 29.7478 33 30.875C33 31.4386 32.7761 31.9791 32.3776 32.3776C31.9791 32.7761 31.4386 33 30.875 33H18.125C17.5614 33 17.0209 32.7761 16.6224 32.3776C16.2239 31.9791 16 31.4386 16 30.875Z" stroke="#15191D" stroke-width="1.8" stroke-linejoin="round"/>
<path d="M24.5 22.375C26.2604 22.375 27.6875 20.9479 27.6875 19.1875C27.6875 17.4271 26.2604 16 24.5 16C22.7396 16 21.3125 17.4271 21.3125 19.1875C21.3125 20.9479 22.7396 22.375 24.5 22.375Z" stroke="#15191D" stroke-width="1.8"/>
<rect x="0.5" y="0.5" width="48" height="48" rx="24" stroke="#E3E7ED"/>
</svg>
