<svg width="339" height="292" viewBox="0 0 339 292" fill="none" xmlns="http://www.w3.org/2000/svg">
<path d="M30.589 7.76C35.197 7.76 39.037 8.208 42.237 9.104C45.373 10.064 47.933 11.28 49.917 12.752C51.837 14.288 53.309 16.08 54.205 18C55.037 20.048 55.485 22.096 55.485 24.208C55.485 26.384 55.037 28.432 54.205 30.352C53.309 32.4 51.837 34.128 49.917 35.6C47.933 37.136 45.373 38.352 42.237 39.248C39.037 40.208 35.197 40.656 30.589 40.656C25.981 40.656 22.077 40.208 18.941 39.248C15.741 38.352 13.181 37.136 11.261 35.6C9.277 34.128 7.869 32.4 7.037 30.352C6.141 28.432 5.693 26.384 5.693 24.208C5.693 22.096 6.141 20.048 7.037 18C7.869 16.08 9.277 14.288 11.261 12.752C13.181 11.28 15.741 10.064 18.941 9.104C22.077 8.208 25.981 7.76 30.589 7.76ZM1.853 46.032C1.853 45.392 1.981 45.008 2.237 44.752C2.493 44.56 2.877 44.432 3.517 44.432H57.533C58.109 44.432 58.557 44.56 58.813 44.752C59.069 45.008 59.197 45.392 59.197 46.032V53.52C59.197 54.16 59.069 54.608 58.813 54.8C58.557 55.056 58.109 55.12 57.533 55.12H36.669V67.536C36.669 68.176 36.541 68.56 36.285 68.816C36.029 69.008 35.581 69.136 35.005 69.136H26.045C25.405 69.136 25.021 69.008 24.765 68.816C24.509 68.56 24.381 68.176 24.381 67.536V55.12H3.517C2.877 55.12 2.493 55.056 2.237 54.8C1.981 54.608 1.853 54.16 1.853 53.52V46.032ZM30.589 30.352C32.125 30.352 33.725 30.288 35.261 30.096C36.797 29.968 38.141 29.712 39.421 29.2C40.573 28.816 41.597 28.176 42.365 27.344C43.069 26.576 43.453 25.488 43.453 24.208C43.453 22.928 43.069 21.904 42.365 21.072C41.597 20.304 40.573 19.664 39.421 19.152C38.141 18.768 36.797 18.448 35.261 18.256C33.725 18.128 32.125 18.064 30.589 18.064C28.989 18.064 27.453 18.128 25.917 18.256C24.381 18.448 22.973 18.768 21.821 19.152C20.541 19.664 19.581 20.304 18.877 21.072C18.109 21.904 17.725 22.928 17.725 24.208C17.725 25.488 18.109 26.576 18.877 27.344C19.581 28.176 20.541 28.816 21.821 29.2C22.973 29.712 24.381 29.968 25.917 30.096C27.453 30.288 28.989 30.352 30.589 30.352ZM107.722 67.92C107.082 67.92 106.698 67.792 106.442 67.6C106.186 67.344 106.058 66.96 106.058 66.32V10C106.058 9.36 106.186 8.976 106.442 8.72C106.698 8.528 107.082 8.4 107.722 8.4H116.682C117.258 8.4 117.706 8.528 117.962 8.72C118.218 8.976 118.346 9.36 118.346 10V66.32C118.346 66.96 118.218 67.344 117.962 67.6C117.706 67.792 117.258 67.92 116.682 67.92H107.722ZM76.3615 49.68C76.3615 51.216 76.6815 52.368 77.3215 53.072C77.9615 53.84 79.1135 54.16 80.8415 54.096C83.9775 54.032 87.0495 53.904 90.1215 53.712C93.0655 53.584 96.2015 53.392 99.4015 53.072C99.9775 53.008 100.362 53.072 100.618 53.264C100.81 53.52 100.938 53.968 101.066 54.608L101.706 62.032C101.77 62.672 101.642 63.056 101.386 63.248C101.066 63.376 100.618 63.504 100.042 63.632C95.8175 63.952 91.6575 64.208 87.6895 64.464C83.6575 64.592 79.6255 64.72 75.5295 64.72C71.4335 64.72 68.4895 63.632 66.7615 61.456C64.9695 59.216 64.0735 55.76 64.0735 50.896V32.464C64.0735 31.824 64.2015 31.44 64.4575 31.184C64.7135 30.992 65.0975 30.864 65.7375 30.864H85.1295C85.7055 30.864 86.1535 30.8 86.4095 30.544C86.6655 30.352 86.7935 29.904 86.7935 29.264V22.608C86.7935 21.008 86.4735 19.984 85.9615 19.472C85.3855 19.024 84.5535 18.768 83.4655 18.768H65.7375C65.0975 18.768 64.7135 18.704 64.4575 18.448C64.2015 18.256 64.0735 17.808 64.0735 17.168V10C64.0735 9.36 64.2015 8.976 64.4575 8.72C64.7135 8.528 65.0975 8.4 65.7375 8.4H90.1215C91.7215 8.4 93.1295 8.592 94.2815 8.976C95.4335 9.36 96.3295 10 97.0975 10.832C97.7375 11.728 98.2495 12.88 98.6335 14.224C98.8895 15.632 99.0815 17.36 99.0815 19.344V39.632C99.0815 40.272 98.9535 40.72 98.6975 40.912C98.4415 41.168 97.9935 41.232 97.4175 41.232H78.0255C77.3855 41.232 77.0015 41.36 76.7455 41.552C76.4895 41.808 76.3615 42.192 76.3615 42.832V49.68ZM189.659 67.92C189.019 67.92 188.635 67.792 188.379 67.6C188.123 67.344 187.995 66.96 187.995 66.32V51.664H180.571C179.291 56.08 177.371 59.408 174.683 61.776C171.931 64.08 168.219 65.232 163.483 65.232C160.027 65.232 157.083 64.592 154.715 63.312C152.283 62.032 150.363 60.176 148.955 57.744C147.419 55.312 146.395 52.368 145.755 48.784C145.051 45.328 144.731 41.296 144.731 36.816C144.731 32.336 145.051 28.368 145.755 24.784C146.395 21.328 147.419 18.32 148.955 15.888C150.363 13.456 152.283 11.6 154.715 10.32C157.083 9.04 160.027 8.4 163.483 8.4C167.835 8.4 171.291 9.424 173.979 11.344C176.539 13.328 178.523 16.208 179.931 19.92H187.995V10C187.995 9.36 188.123 8.976 188.379 8.72C188.635 8.528 189.019 8.4 189.659 8.4H198.619C199.195 8.4 199.643 8.528 199.899 8.72C200.155 8.976 200.283 9.36 200.283 10V66.32C200.283 66.96 200.155 67.344 199.899 67.6C199.643 67.792 199.195 67.92 198.619 67.92H189.659ZM170.267 36.816C170.267 32.912 170.011 29.776 169.627 27.408C169.115 25.104 168.539 23.248 167.899 21.968C167.195 20.752 166.491 19.92 165.723 19.536C164.891 19.152 164.123 18.96 163.483 18.96C162.779 18.96 162.075 19.152 161.307 19.536C160.475 19.92 159.707 20.752 159.067 21.968C158.363 23.248 157.787 25.104 157.403 27.408C156.891 29.776 156.699 32.912 156.699 36.816C156.699 40.784 156.891 43.92 157.403 46.224C157.787 48.592 158.363 50.384 159.067 51.6C159.707 52.88 160.475 53.712 161.307 54.096C162.075 54.48 162.779 54.672 163.483 54.672C164.123 54.672 164.891 54.48 165.723 54.096C166.491 53.712 167.195 52.88 167.899 51.6C168.539 50.384 169.115 48.592 169.627 46.224C170.011 43.92 170.267 40.784 170.267 36.816ZM182.235 36.816V38.928C182.171 39.696 182.107 40.4 182.107 41.04H187.995V30.544H181.979L182.171 33.552C182.171 34.64 182.235 35.728 182.235 36.816ZM221.531 58.32C221.531 56.4 221.915 54.672 222.683 53.072C223.451 51.536 224.667 50.128 226.331 48.976C227.995 47.824 230.107 46.928 232.731 46.288C235.291 45.712 238.427 45.392 242.139 45.392C245.787 45.392 248.923 45.712 251.547 46.288C254.107 46.928 256.283 47.824 257.947 48.976C259.611 50.128 260.827 51.536 261.595 53.072C262.363 54.672 262.747 56.4 262.747 58.32C262.747 60.24 262.363 61.968 261.595 63.568C260.827 65.104 259.611 66.512 257.947 67.664C256.283 68.816 254.107 69.712 251.547 70.352C248.923 70.928 245.787 71.248 242.139 71.248C238.427 71.248 235.291 70.928 232.731 70.352C230.107 69.712 227.995 68.816 226.331 67.664C224.667 66.512 223.451 65.104 222.683 63.568C221.915 61.968 221.531 60.24 221.531 58.32ZM241.627 43.216C240.987 43.216 240.603 43.152 240.347 42.896C240.091 42.704 239.963 42.256 239.963 41.616V10C239.963 9.36 240.091 8.976 240.347 8.72C240.603 8.528 240.987 8.4 241.627 8.4H249.627C250.203 8.4 250.651 8.528 250.907 8.72C251.163 8.976 251.291 9.36 251.291 10V20.944H254.107V10C254.107 9.36 254.235 8.976 254.491 8.72C254.747 8.528 255.131 8.4 255.771 8.4H263.771C264.347 8.4 264.795 8.528 265.051 8.72C265.307 8.976 265.435 9.36 265.435 10V42.256C265.435 42.896 265.307 43.344 265.051 43.536C264.795 43.792 264.347 43.856 263.771 43.856H255.771C255.131 43.856 254.747 43.792 254.491 43.536C254.235 43.344 254.107 42.896 254.107 42.256V30.672H251.291V41.616C251.291 42.256 251.163 42.704 250.907 42.896C250.651 43.152 250.203 43.216 249.627 43.216H241.627ZM208.987 33.232C208.987 31.76 209.179 30.352 209.691 29.008C210.075 27.728 210.843 26.64 211.995 25.616C213.019 24.72 214.491 23.952 216.347 23.376C218.139 22.864 220.379 22.544 223.067 22.544C225.755 22.544 227.995 22.864 229.851 23.376C231.643 23.952 233.051 24.72 234.203 25.616C235.227 26.64 235.995 27.728 236.507 29.008C236.891 30.352 237.147 31.76 237.147 33.232C237.147 34.768 236.891 36.112 236.507 37.392C235.995 38.736 235.227 39.888 234.203 40.784C233.051 41.808 231.643 42.576 229.851 43.088C227.995 43.664 225.755 43.92 223.067 43.92C220.379 43.92 218.139 43.664 216.347 43.088C214.491 42.576 213.019 41.808 211.995 40.784C210.843 39.888 210.075 38.736 209.691 37.392C209.179 36.112 208.987 34.768 208.987 33.232ZM207.899 12.368C207.899 11.728 208.027 11.344 208.283 11.088C208.539 10.896 208.923 10.768 209.563 10.768H217.051V8.464C217.051 7.824 217.179 7.44 217.435 7.184C217.691 6.992 218.075 6.864 218.715 6.864H227.675C228.251 6.864 228.699 6.992 228.955 7.184C229.211 7.44 229.339 7.824 229.339 8.464V10.768H236.699C237.275 10.768 237.723 10.896 237.979 11.088C238.235 11.344 238.363 11.728 238.363 12.368V18.576C238.363 19.216 238.235 19.664 237.979 19.856C237.723 20.112 237.275 20.176 236.699 20.176H209.563C208.923 20.176 208.539 20.112 208.283 19.856C208.027 19.664 207.899 19.216 207.899 18.576V12.368ZM250.651 58.32C250.651 57.68 250.395 57.104 249.947 56.656C249.435 56.272 248.859 55.888 248.091 55.632C247.259 55.376 246.363 55.184 245.339 55.056C244.315 54.992 243.227 54.928 242.139 54.928C240.987 54.928 239.963 54.992 238.939 55.056C237.915 55.184 237.019 55.376 236.251 55.632C235.419 55.888 234.779 56.272 234.331 56.656C233.819 57.104 233.627 57.68 233.627 58.32C233.627 58.96 233.819 59.536 234.331 59.984C234.779 60.368 235.419 60.752 236.251 61.008C237.019 61.264 237.915 61.456 238.939 61.584C239.963 61.648 240.987 61.712 242.139 61.712C243.227 61.712 244.315 61.648 245.339 61.584C246.363 61.456 247.259 61.264 248.091 61.008C248.859 60.752 249.435 60.368 249.947 59.984C250.395 59.536 250.651 58.96 250.651 58.32ZM219.099 33.232C219.099 34.96 220.379 35.792 223.067 35.792C225.691 35.792 227.035 34.96 227.035 33.232C227.035 31.568 225.691 30.672 223.067 30.672C220.379 30.672 219.099 31.568 219.099 33.232Z" fill="white"/>
<path d="M113.846 232.024C113.974 233.048 113.718 233.688 113.206 233.944C112.566 234.2 111.67 234.328 110.518 234.584C104.63 235.096 98.7415 235.608 93.1095 235.992C87.2215 236.248 81.3335 236.632 75.1895 236.888L55.9895 237.272C49.2055 237.272 41.9095 237.4 34.2295 237.4C26.2935 237.4 20.4055 235.736 16.8215 232.536C13.1095 229.208 11.3175 223.832 11.3175 216.536V201.56C11.3175 200.408 11.5735 199.64 12.0855 199.128C12.5975 198.744 13.3655 198.488 14.6455 198.488H90.1655V193.624H14.6455C13.3655 193.624 12.5975 193.496 12.0855 192.984C11.5735 192.6 11.3175 191.832 11.3175 190.552V180.696C11.3175 179.416 11.5735 178.648 12.0855 178.136C12.5975 177.752 13.3655 177.496 14.6455 177.496H108.982C110.134 177.496 111.03 177.752 111.542 178.136C112.054 178.648 112.31 179.416 112.31 180.696V211.288C112.31 212.568 112.054 213.464 111.542 213.848C111.03 214.36 110.134 214.488 108.982 214.488H33.4615V215.896C33.4615 217.816 33.9735 218.968 34.9975 219.48C36.0215 219.864 37.5575 220.12 39.7335 220.12C46.9015 220.12 53.5575 219.992 59.9575 219.992L77.8775 219.608C83.5095 219.352 88.8855 219.224 94.1335 218.968C99.2535 218.712 104.246 218.328 109.366 217.944C111.414 217.816 112.566 218.584 112.694 220.376L113.846 232.024ZM46.3895 142.552C46.3895 140.504 46.0055 139.096 45.2375 138.328C44.3415 137.56 43.1895 137.176 41.6535 137.176H8.7575C7.4775 137.176 6.7095 137.048 6.1975 136.536C5.6855 136.152 5.4295 135.256 5.4295 133.976V119C5.4295 117.72 5.6855 116.952 6.1975 116.44C6.7095 116.056 7.4775 115.8 8.7575 115.8H57.1415C61.7495 115.8 65.2055 117.08 67.5095 119.384C69.8135 121.816 70.9655 125.656 70.9655 131.032C70.9655 136.152 70.7095 141.656 70.3255 147.672C69.8135 153.816 68.7895 161.112 67.3815 169.56C67.1255 170.84 66.8695 171.736 66.4855 172.248C65.9735 172.76 65.2055 173.016 64.0535 172.76L46.6455 170.84C45.3655 170.712 44.4695 170.328 43.9575 169.688C43.3175 169.176 43.1895 168.152 43.4455 166.616C44.4695 160.984 45.2375 156.248 45.7495 152.152C46.1335 148.312 46.3895 145.112 46.3895 142.552ZM91.0615 172.12C89.7815 172.12 89.0135 171.992 88.5015 171.48C87.9895 171.096 87.7335 170.2 87.7335 168.92V119C87.7335 117.72 87.9895 116.952 88.5015 116.44C89.0135 116.056 89.7815 115.8 91.0615 115.8H108.982C110.134 115.8 111.03 116.056 111.542 116.44C112.054 116.952 112.31 117.72 112.31 119V132.568H124.086C125.238 132.568 126.134 132.824 126.646 133.208C127.158 133.72 127.414 134.488 127.414 135.768V150.616C127.414 151.896 127.158 152.792 126.646 153.176C126.134 153.688 125.238 153.816 124.086 153.816H112.31V168.92C112.31 170.2 112.054 171.096 111.542 171.48C111.03 171.992 110.134 172.12 108.982 172.12H91.0615ZM197.942 234.84C196.662 234.84 195.894 234.584 195.382 234.2C194.87 233.688 194.614 232.92 194.614 231.64V119C194.614 117.72 194.87 116.952 195.382 116.44C195.894 116.056 196.662 115.8 197.942 115.8H213.942C215.094 115.8 215.99 116.056 216.502 116.44C217.014 116.952 217.27 117.72 217.27 119V159.32H222.902V119C222.902 117.72 223.158 116.952 223.67 116.44C224.182 116.056 224.95 115.8 226.23 115.8H242.23C243.382 115.8 244.278 116.056 244.79 116.44C245.302 116.952 245.558 117.72 245.558 119V231.64C245.558 232.92 245.302 233.688 244.79 234.2C244.278 234.584 243.382 234.84 242.23 234.84H226.23C224.95 234.84 224.182 234.584 223.67 234.2C223.158 233.688 222.902 232.92 222.902 231.64V180.568H217.27V231.64C217.27 232.92 217.014 233.688 216.502 234.2C215.99 234.584 215.094 234.84 213.942 234.84H197.942ZM185.654 224.984C180.278 226.008 175.158 226.776 170.294 227.544C165.302 228.056 160.566 228.44 156.086 228.44C147.894 228.44 142.134 226.264 138.678 221.912C135.094 217.432 133.43 210.52 133.43 200.792V164.056C133.43 162.776 133.686 162.008 134.198 161.496C134.71 161.112 135.478 160.856 136.758 160.856H159.67C160.822 160.856 161.718 160.728 162.229 160.216C162.742 159.832 162.998 158.936 162.998 157.656V143.576C162.998 140.376 162.358 138.328 161.333 137.304C160.182 136.408 158.518 135.896 156.342 135.896H136.758C135.478 135.896 134.71 135.768 134.198 135.256C133.686 134.872 133.43 133.976 133.43 132.696V119C133.43 117.72 133.686 116.952 134.198 116.44C134.71 116.056 135.478 115.8 136.758 115.8H169.526C172.726 115.8 175.542 116.184 177.846 116.952C180.15 117.72 181.942 119 183.478 120.664C184.758 122.456 185.782 124.76 186.55 127.448C187.062 130.264 187.446 133.72 187.446 137.688V177.752C187.446 179.032 187.19 179.928 186.678 180.312C186.166 180.824 185.27 180.952 184.118 180.952H161.078C159.798 180.952 159.03 181.208 158.518 181.592C158.006 182.104 157.75 182.872 157.75 184.152V198.36C157.75 201.432 158.39 203.736 159.67 205.144C160.95 206.68 163.254 207.32 166.71 207.192C169.27 207.192 171.958 206.808 174.774 206.296C177.462 205.912 180.278 205.528 183.35 205.016C184.502 204.888 185.398 205.016 185.91 205.528C186.422 206.04 186.678 206.936 186.934 208.216L188.982 221.656C189.11 222.808 188.854 223.576 188.342 224.088C187.702 224.472 186.806 224.728 185.654 224.984ZM279.478 237.4C278.198 237.4 277.43 237.144 276.918 236.76C276.406 236.248 276.15 235.48 276.15 234.2V218.072C276.15 216.792 276.406 215.896 276.918 215.512C277.43 215 278.198 214.872 279.478 214.872H296.758C297.91 214.872 298.806 215 299.318 215.512C299.83 215.896 300.086 216.792 300.086 218.072V234.2C300.086 235.48 299.83 236.248 299.318 236.76C298.806 237.144 297.91 237.4 296.758 237.4H279.478ZM276.15 192.472C276.15 188.76 276.79 185.56 278.326 182.744C279.606 180.184 281.398 177.752 283.574 175.704C285.622 173.784 288.054 171.992 290.614 170.2C293.046 168.664 295.35 166.872 297.526 165.08C299.574 163.288 301.366 161.368 302.902 159.192C304.182 157.144 304.95 154.456 304.95 151.384C304.95 149.336 304.822 147.544 304.566 146.008C304.31 144.472 303.67 143.192 302.902 142.04C301.878 141.016 300.47 140.248 298.678 139.736C296.758 139.224 294.198 138.968 291.126 138.968C289.718 138.968 288.182 139.096 286.518 139.096C284.726 139.352 282.934 139.48 281.142 139.608C279.35 139.864 277.558 140.12 275.894 140.376C274.102 140.632 272.566 140.888 271.286 141.144C269.75 141.4 268.598 141.4 267.574 141.016C266.55 140.76 265.91 139.608 265.654 137.304L264.118 124.376C263.862 123.352 263.99 122.584 264.246 121.816C264.502 121.176 264.758 120.664 265.27 120.152C265.654 119.896 266.166 119.64 266.678 119.384C267.19 119.256 267.574 119.128 267.958 119C272.566 117.976 277.302 117.208 282.166 116.44C287.03 115.928 291.766 115.672 296.374 115.8C300.854 116.056 305.078 116.696 309.174 117.72C313.142 119 316.726 120.792 319.798 123.352C322.742 125.912 325.174 129.24 326.965 133.208C328.63 137.304 329.526 142.424 329.526 148.312C329.526 153.432 328.757 157.656 327.35 161.24C325.814 164.952 324.021 168.152 321.974 170.712C319.67 173.528 317.366 175.832 314.806 177.624L307.766 183C305.462 184.664 303.67 186.2 302.262 187.736C300.726 189.272 300.086 191.064 300.086 192.984V203.352C300.086 204.632 299.83 205.528 299.318 205.912C298.806 206.424 297.91 206.552 296.758 206.552H279.478C278.198 206.552 277.43 206.424 276.918 205.912C276.406 205.528 276.15 204.632 276.15 203.352V192.472Z" fill="white"/>
</svg>
