<svg width="24" height="24" viewBox="0 0 24 24" fill="none" xmlns="http://www.w3.org/2000/svg">
<g filter="url(#filter0_b_446_334)">
<circle cx="12" cy="12" r="16" fill="#727272" fill-opacity="0.72"/>
<circle cx="12" cy="12" r="15.5" stroke="#E3E7ED"/>
</g>
<path d="M12.9025 11.9962L19.6561 5.23595C19.7752 5.11621 19.8421 4.95414 19.8419 4.78523C19.8418 4.61631 19.7748 4.45433 19.6555 4.33475C19.4167 4.09715 18.9961 4.09595 18.7549 4.33595L12.0031 11.0961L5.24888 4.33415C5.00888 4.09715 4.58828 4.09835 4.34948 4.33535C4.2902 4.39439 4.24328 4.46464 4.21145 4.542C4.17962 4.61937 4.16351 4.70229 4.16408 4.78595C4.16408 4.95635 4.23008 5.11595 4.34948 5.23415L11.1031 11.9956L4.35008 18.7576C4.23091 18.8775 4.16417 19.0398 4.16451 19.2088C4.16485 19.3779 4.23223 19.5399 4.35188 19.6594C4.46768 19.7739 4.63148 19.84 4.80068 19.84H4.80428C4.97408 19.8394 5.13788 19.7728 5.25128 19.657L12.0031 12.8968L18.7573 19.6588C18.8767 19.7776 19.0363 19.8436 19.2055 19.8436C19.2891 19.8438 19.372 19.8275 19.4494 19.7956C19.5267 19.7637 19.597 19.7168 19.6562 19.6576C19.7153 19.5985 19.7622 19.5282 19.7941 19.4508C19.826 19.3735 19.8423 19.2906 19.8421 19.207C19.8421 19.0372 19.7761 18.877 19.6561 18.7587L12.9025 11.9962Z" fill="white"/>
<defs>
<filter id="filter0_b_446_334" x="-9" y="-9" width="42" height="42" filterUnits="userSpaceOnUse" color-interpolation-filters="sRGB">
<feFlood flood-opacity="0" result="BackgroundImageFix"/>
<feGaussianBlur in="BackgroundImageFix" stdDeviation="2.5"/>
<feComposite in2="SourceAlpha" operator="in" result="effect1_backgroundBlur_446_334"/>
<feBlend mode="normal" in="SourceGraphic" in2="effect1_backgroundBlur_446_334" result="shape"/>
</filter>
</defs>
</svg>
