<svg width="72" height="72" viewBox="0 0 72 72" fill="none" xmlns="http://www.w3.org/2000/svg">
<g id="fluent:location-28-filled">
<path id="Vector" d="M36.0011 5.78516C42.6505 5.78516 49.0275 8.4266 53.7293 13.1284C58.4311 17.8302 61.0725 24.2072 61.0725 30.8566C61.0725 41.4509 53.6283 52.9966 38.9325 65.6172C38.1154 66.3191 37.0736 66.7047 35.9963 66.7037C34.9191 66.7028 33.8779 66.3154 33.062 65.612L32.09 64.7686C18.0448 52.4772 10.9297 41.2143 10.9297 30.8566C10.9297 24.2072 13.5711 17.8302 18.2729 13.1284C22.9747 8.4266 29.3518 5.78516 36.0011 5.78516ZM36.0011 21.2137C33.4437 21.2137 30.991 22.2297 29.1826 24.0381C27.3742 25.8464 26.3583 28.2991 26.3583 30.8566C26.3583 33.414 27.3742 35.8667 29.1826 37.6751C30.991 39.4835 33.4437 40.4994 36.0011 40.4994C38.5586 40.4994 41.0113 39.4835 42.8197 37.6751C44.628 35.8667 45.644 33.414 45.644 30.8566C45.644 28.2991 44.628 25.8464 42.8197 24.0381C41.0113 22.2297 38.5586 21.2137 36.0011 21.2137Z" fill="#FFA63E"/>
</g>
</svg>
